PathFileType	4	(x/y/z)	S06_M20_T14
DataRate	CameraRate	NumFrames	NumMarkers	Units	OrigDataRate	OrigDataStartFrame	OrigNumFrames
240	240	5	51	mm	240	245	488
Frame#	Time	Sternum			R.Acromium			L.Acromium			Top.Head			R.ASIS			L.ASIS			R.PSIS			L.PSIS			R.Great.Tro			L.Great.Tro			R.Iliac.Crest			L.Iliac.Crest			V.Sacral			R.Thigh.Upper.Post			R.Thigh.Lower.Ant			R.Thigh.Lower.Post			R.Thigh.Upper.Ant			R.Knee.Lat			R.Knee.Med			R.Shank.Upper.Post			R.Shank.Lower.Ant			R.Shank.Lower.Post			R.Shank.Upper.Ant			R.Ankle.Lat			R.Ankle.Med			R.Heel.Upper			R.Heel.Med			R.Heel.Lat			R.Toe.Lat			R.Toe.Med			R.Toe.Tip			L.Thigh.Upper.Post			L.Thigh.Lower.Ant			L.Thigh.Lower.Post			L.Thigh.Upper.Ant			L.Knee.Lat			L.Knee.Med			L.Shank.Upper.Post			L.Shank.Lower.Ant			L.Shank.Lower.Post			L.Shank.Upper.Ant			L.Ankle.Lat			L.Ankle.Med			L.Heel.Upper			L.Heel.Med			L.Heel.Lat			L.Toe.Lat			L.Toe.Med			L.Toe.Tip			Cervical.Spine			Back			
		X1	Y1	Z1	X2	Y2	Z2	X3	Y3	Z3	X4	Y4	Z4	X5	Y5	Z5	X6	Y6	Z6	X7	Y7	Z7	X8	Y8	Z8	X9	Y9	Z9	X10	Y10	Z10	X11	Y11	Z11	X12	Y12	Z12	X13	Y13	Z13	X14	Y14	Z14	X15	Y15	Z15	X16	Y16	Z16	X17	Y17	Z17	X18	Y18	Z18	X19	Y19	Z19	X20	Y20	Z20	X21	Y21	Z21	X22	Y22	Z22	X23	Y23	Z23	X24	Y24	Z24	X25	Y25	Z25	X26	Y26	Z26	X27	Y27	Z27	X28	Y28	Z28	X29	Y29	Z29	X30	Y30	Z30	X31	Y31	Z31	X32	Y32	Z32	X33	Y33	Z33	X34	Y34	Z34	X35	Y35	Z35	X36	Y36	Z36	X37	Y37	Z37	X38	Y38	Z38	X39	Y39	Z39	X40	Y40	Z40	X41	Y41	Z41	X42	Y42	Z42	X43	Y43	Z43	X44	Y44	Z44	X45	Y45	Z45	X46	Y46	Z46	X47	Y47	Z47	X48	Y48	Z48	X49	Y49	Z49	X50	Y50	Z50	X51	Y51	Z51	

245	1.0167	-253.13	1303.2	351.24	-380.41	1503	525.78	-406.35	1502.7	175.21	-353	1820.1	350.73	-282.83	1070	482.79	-276.35	1060.7	228.83	NaN	NaN	NaN	-480.05	1076.4	304.22	-344.42	994.66	529.3	-363.1	980.1	175.68	-372.99	1136.8	511.91	-353.19	1127.5	188.69	-492.92	1042.3	349.93	-353.57	743.1	505.82	-299.22	661.13	472.82	-368.89	657.94	482.4	-280.84	748.12	493.63	-358.63	544.89	463.72	-343.16	556.12	336.17	-423.61	319.37	441.2	-366.99	252.28	422.9	-432.25	244.31	419.94	-358.3	325.92	443.36	-408.51	112.39	387.89	-382.1	121.93	308.41	-469.33	78.082	331.04	-458.42	47.216	300.72	-464.45	45.692	365.73	-291.69	35.032	423.08	-256.01	44.899	303.73	-194.24	53.707	355.46	-216.31	745.9	180	-148.36	679.79	237.15	-207.33	655.3	190.13	-164.8	773.24	223.24	-213.17	564.33	202.07	-186.5	560.26	323.88	-364.08	403.73	195.06	-344.09	317.35	189.75	-408.05	345.4	205.5	-304.37	376.08	184.98	-446.32	204.24	191.65	-429.36	206.5	280.46	-532.97	206.11	235.59	-546.12	177.34	263.37	-539.79	186.38	202.36	-392.02	87.415	162.44	-382.28	68.245	278.4	-309.21	49.139	227.45	-446.32	1553.8	354.29	-491.48	1277.2	353.72
246	1.0208	-248.46	1303.1	351.41	-375.52	1503.1	525.85	-401.57	1502.6	175.3	-348.07	1820.1	350.61	-278.5	1069.7	483.1	-271.76	1060.7	229.13	NaN	NaN	NaN	-475.56	1076.5	304.25	-340.34	994.53	529.39	-358.23	980.26	175.73	-368.64	1136.8	512.05	-348.34	1127.6	188.85	-488.45	1042.4	349.9	-350.93	743.13	505.6	-297.12	660.95	472.6	-366.71	658.05	482.19	-278.14	747.75	493.5	-357.17	544.88	463.5	-341.74	556.1	335.93	-422.83	319.59	441.03	-366.39	252.33	422.69	-431.66	244.54	419.71	-357.57	325.98	443.07	-408.24	112.52	387.67	-381.95	122	308.16	-469.3	78.226	330.89	-458.35	47.256	300.62	-464.37	45.876	365.64	-291.64	35.068	423.01	-255.91	44.748	303.65	-194.13	53.448	355.4	-209.76	746.94	180.61	-141.72	681.36	238.21	-200.32	656.39	190.95	-158.71	774.63	224.12	-205.59	565.43	203.01	-179.26	561.61	324.76	-353.85	402.11	195.87	-332.2	316.14	190.06	-396.61	342.89	206.22	-293.65	375.65	185.44	-432.19	200.93	191.85	-414.86	203.17	280.63	-518.79	200.46	236.09	-531.12	171.25	263.81	-525.19	180.7	202.79	-375.14	85.631	161.91	-364.47	66.241	277.76	-291.19	49.142	226.47	-441.43	1553.8	354.37	-486.83	1277.3	353.88
247	1.025	-243.8	1303	351.58	-370.63	1503.1	525.91	-396.78	1502.5	175.38	-343.14	1820.1	350.48	-274.16	1069.5	483.38	-267.18	1060.7	229.4	NaN	NaN	NaN	-471.08	1076.6	304.29	-336.25	994.38	529.48	-353.38	980.38	175.79	-364.27	1136.7	512.18	-343.51	1127.6	189	-484	1042.5	349.88	-348.3	743.15	505.38	-295.03	660.76	472.36	-364.53	658.14	481.99	-275.44	747.37	493.36	-355.7	544.87	463.29	-340.31	556.07	335.69	-422.04	319.81	440.85	-365.79	252.38	422.47	-431.08	244.77	419.49	-356.85	326.03	442.78	-407.98	112.65	387.45	-381.82	122.08	307.93	-469.27	78.368	330.73	-458.25	47.301	300.53	-464.29	46.059	365.55	-291.6	35.101	422.94	-255.82	44.606	303.58	-194.03	53.199	355.34	-203.31	747.94	181.23	-135.18	682.86	239.25	-193.42	657.45	191.77	-152.71	775.97	224.99	-198.12	566.48	203.92	-172.12	562.92	325.62	-343.62	400.41	196.68	-320.3	314.9	190.4	-385.14	340.31	206.96	-282.95	375.18	185.91	-417.97	197.61	192.09	-400.24	199.86	280.85	-504.45	194.81	236.63	-515.93	165.18	264.31	-510.43	175	203.28	-358.21	83.879	161.44	-346.55	64.333	277.19	-273.14	49.229	225.56	-436.54	1553.9	354.44	-482.18	1277.4	354.03
248	1.0292	-239.13	1302.9	351.74	-365.74	1503.2	525.97	-391.99	1502.4	175.46	-338.23	1820	350.36	-269.81	1069.2	483.65	-262.6	1060.7	229.66	NaN	NaN	NaN	-466.6	1076.7	304.34	-332.14	994.21	529.56	-348.56	980.48	175.84	-359.89	1136.6	512.3	-338.68	1127.7	189.15	-479.54	1042.5	349.86	-345.66	743.14	505.16	-292.95	660.56	472.12	-362.35	658.21	481.79	-272.75	746.99	493.21	-354.24	544.85	463.08	-338.89	556.02	335.46	-421.26	320.03	440.66	-365.21	252.43	422.26	-430.5	245.01	419.26	-356.14	326.09	442.49	-407.72	112.78	387.24	-381.7	122.17	307.69	-469.22	78.506	330.58	-458.13	47.349	300.44	-464.21	46.239	365.46	-291.55	35.13	422.87	-255.73	44.473	303.5	-193.93	52.961	355.29	-196.96	748.89	181.85	-128.74	684.3	240.28	-186.62	658.45	192.58	-146.78	777.25	225.86	-190.78	567.48	204.82	-165.07	564.17	326.46	-333.39	398.65	197.5	-308.39	313.65	190.76	-373.64	337.69	207.71	-272.28	374.68	186.39	-403.66	194.27	192.38	-385.51	196.58	281.13	-489.96	189.16	237.23	-500.56	159.15	264.87	-495.5	169.31	203.83	-341.21	82.169	161.06	-328.55	62.528	276.71	-255.06	49.408	224.74	-431.65	1553.9	354.51	-477.53	1277.4	354.17
249	1.0333	-234.47	1302.8	351.88	-360.85	1503.2	526.03	-387.19	1502.3	175.53	-333.31	1820	350.23	-265.46	1068.9	483.91	-258.02	1060.6	229.89	NaN	NaN	NaN	-462.13	1076.8	304.39	-328.02	994.01	529.64	-343.76	980.54	175.89	-355.49	1136.5	512.41	-333.87	1127.7	189.29	-475.09	1042.5	349.85	-343.02	743.12	504.94	-290.87	660.35	471.86	-360.16	658.28	481.59	-270.07	746.6	493.06	-352.77	544.82	462.86	-337.45	555.96	335.25	-420.49	320.24	440.47	-364.63	252.47	422.05	-429.93	245.25	419.03	-355.45	326.14	442.21	-407.46	112.91	387.03	-381.58	122.27	307.46	-469.15	78.639	330.42	-457.99	47.401	300.36	-464.14	46.417	365.36	-291.5	35.155	422.79	-255.66	44.347	303.43	-193.84	52.732	355.25	-190.71	749.79	182.48	-122.4	685.67	241.29	-179.92	659.41	193.38	-140.94	778.46	226.72	-183.55	568.44	205.68	-158.11	565.36	327.27	-323.18	396.83	198.31	-296.48	312.38	191.14	-362.11	335.01	208.49	-261.62	374.15	186.88	-389.25	190.94	192.72	-370.66	193.33	281.47	-475.31	183.53	237.89	-485.02	153.17	265.49	-480.42	163.62	204.45	-324.15	80.508	160.75	-310.46	60.838	276.31	-236.97	49.687	224.01	-426.75	1553.9	354.58	-472.89	1277.4	354.31
